<svg width="235" height="32" viewBox="0 0 235 32" fill="none" xmlns="http://www.w3.org/2000/svg">
<path d="M15.7537 32C24.4542 32 31.5074 24.9469 31.5074 16.2466C31.5074 7.54618 24.4542 0.493126 15.7537 0.493126C7.05317 0.493126 0 7.54618 0 16.2466C0 24.9469 7.05317 32 15.7537 32Z" fill="white"/>
<path d="M14.8047 21.3253C14.1178 20.4466 13.6812 18.8297 13.5721 16.8984C14.699 16.7462 16.1381 17.2162 16.3903 18.5306C16.6634 19.9528 15.914 20.7169 14.8047 21.3253ZM8.22768 21.3337C7.69611 19.9431 8.9655 18.3687 10.6455 17.6662C10.6455 17.6662 10.5568 20.2216 11.9612 22.5109C10.3433 22.8519 8.61893 22.3572 8.22768 21.3337ZM17.0675 17.3575C16.9672 17.0269 16.7809 16.4828 15.8009 16.1419C14.2746 15.6109 12.2709 15.78 10.984 16.27C8.39362 17.2569 7.25579 18.8262 6.67515 20.5262C6.22921 21.8319 5.39638 22.8784 3.70917 24.1016C5.87639 23.4416 7.38891 22.3594 7.38891 22.3594C8.35799 23.3809 10.918 24.285 13.8221 23.1362C15.549 22.4531 16.5325 21.6975 17.1613 20.8087C17.4875 20.3475 17.7278 19.7594 17.5806 19.1519C17.45 18.6125 17.2406 17.9284 17.0675 17.3575ZM14.8047 21.3253C14.1178 20.4466 13.6812 18.8297 13.5721 16.8984C14.699 16.7462 16.1381 17.2162 16.3903 18.5306C16.6634 19.9528 15.914 20.7169 14.8047 21.3253ZM8.22768 21.3337C7.69611 19.9431 8.9655 18.3687 10.6455 17.6662C10.6455 17.6662 10.5568 20.2216 11.9612 22.5109C10.3433 22.8519 8.61893 22.3572 8.22768 21.3337ZM17.0675 17.3575C16.9672 17.0269 16.7809 16.4828 15.8009 16.1419C14.2746 15.6109 12.2709 15.78 10.984 16.27C8.39362 17.2569 7.25579 18.8262 6.67515 20.5262C6.22921 21.8319 5.39638 22.8784 3.70917 24.1016C5.87639 23.4416 7.38891 22.3594 7.38891 22.3594C8.35799 23.3809 10.918 24.285 13.8221 23.1362C15.549 22.4531 16.5325 21.6975 17.1613 20.8087C17.4875 20.3475 17.7278 19.7594 17.5806 19.1519C17.45 18.6125 17.2406 17.9284 17.0675 17.3575ZM14.8047 21.3253C14.1178 20.4466 13.6812 18.8297 13.5721 16.8984C14.699 16.7462 16.1381 17.2162 16.3903 18.5306C16.6634 19.9528 15.914 20.7169 14.8047 21.3253ZM8.22768 21.3337C7.69611 19.9431 8.9655 18.3687 10.6455 17.6662C10.6455 17.6662 10.5568 20.2216 11.9612 22.5109C10.3433 22.8519 8.61893 22.3572 8.22768 21.3337ZM17.0675 17.3575C16.9672 17.0269 16.7809 16.4828 15.8009 16.1419C14.2746 15.6109 12.2709 15.78 10.984 16.27C8.39362 17.2569 7.25579 18.8262 6.67515 20.5262C6.22921 21.8319 5.39638 22.8784 3.70917 24.1016C5.87639 23.4416 7.38891 22.3594 7.38891 22.3594C8.35799 23.3809 10.918 24.285 13.8221 23.1362C15.549 22.4531 16.5325 21.6975 17.1613 20.8087C17.4875 20.3475 17.7278 19.7594 17.5806 19.1519C17.45 18.6125 17.2406 17.9284 17.0675 17.3575ZM26.892 19.0091C26.2786 18.7781 25.3904 18.3687 24.7304 17.4834C24.2332 16.8166 24.3011 16.1147 24.8023 15.9112C26.1408 15.3672 27.5627 18.4484 27.7177 18.8759C27.8739 19.3066 27.1758 19.1159 26.892 19.0091ZM26.9602 15.9812C25.6639 14.7719 23.6832 14.1153 22.6476 15.3047C21.8213 16.2537 22.1051 18.2156 23.7126 19.7109C25.5176 21.3903 27.4292 21.8181 28.4149 20.6862C29.394 19.5619 28.4952 17.4134 26.9602 15.9812ZM26.892 19.0091C26.2786 18.7781 25.3904 18.3687 24.7304 17.4834C24.2332 16.8166 24.3011 16.1147 24.8023 15.9112C26.1408 15.3672 27.5627 18.4484 27.7177 18.8759C27.8739 19.3066 27.1758 19.1159 26.892 19.0091ZM26.9602 15.9812C25.6639 14.7719 23.6832 14.1153 22.6476 15.3047C21.8213 16.2537 22.1051 18.2156 23.7126 19.7109C25.5176 21.3903 27.4292 21.8181 28.4149 20.6862C29.394 19.5619 28.4952 17.4134 26.9602 15.9812ZM26.892 19.0091C26.2786 18.7781 25.3904 18.3687 24.7304 17.4834C24.2332 16.8166 24.3011 16.1147 24.8023 15.9112C26.1408 15.3672 27.5627 18.4484 27.7177 18.8759C27.8739 19.3066 27.1758 19.1159 26.892 19.0091ZM26.9602 15.9812C25.6639 14.7719 23.6832 14.1153 22.6476 15.3047C21.8213 16.2537 22.1051 18.2156 23.7126 19.7109C25.5176 21.3903 27.4292 21.8181 28.4149 20.6862C29.394 19.5619 28.4952 17.4134 26.9602 15.9812ZM14.5003 13.4316C12.1349 13.7178 10.6271 13.4369 10.0511 12.6925C9.08613 11.4453 9.9102 10.1062 11.2987 9.95469C14.3587 9.62062 17.3956 13.3162 17.3956 13.3162C17.3956 13.3162 16.2187 13.2237 14.5003 13.4316ZM12.2131 8.62656C9.34926 8.17 6.88766 10.9206 8.92925 13.3903C10.3571 15.1175 13.5906 14.6844 15.8419 14.4478C17.8194 14.24 19.3494 14.2862 19.3494 14.2862C17.2484 10.8734 14.9709 9.06594 12.2131 8.62656ZM14.1906 5.25594C12.1721 5.25594 11.6709 7.01062 11.5712 7.49343C12.0415 7.51093 12.5018 7.58875 12.9487 7.71531C13.0674 7.2425 13.4321 6.4 14.515 6.58656C16.0941 6.85875 17.7103 9.03844 18.2666 11.2447C19.2397 12.4275 19.8257 13.4956 19.8257 13.4956C19.5285 8.95781 16.5306 5.25594 14.1906 5.25594ZM17.7066 16.6703C17.6175 16.3047 17.7122 16.1066 17.9566 15.9428C18.2841 15.7234 18.8613 15.3409 19.7135 15.2619C20.5663 15.1828 21.0463 15.2659 21.3029 15.3406C21.396 15.3675 21.4491 15.4694 21.4232 15.5678C21.2594 16.1887 20.8832 18.4216 23.1948 20.4478C23.3254 20.5625 23.2435 20.7862 23.0739 20.7744C22.1773 20.71 20.3263 20.4619 18.6782 19.4466C18.3878 19.2675 18.3253 19.1412 18.2269 18.7556C18.0241 17.9575 17.9228 17.5562 17.7066 16.6703Z" fill="#FF0001"/>
<path d="M39.2459 13.2875C39.2541 8.12375 41.8213 6.06968 46.9851 6.07812L49.8377 6.08281L49.8324 9.33281L48.063 9.33C44.6326 9.32437 43.4744 10.9834 43.4688 14.4141L43.4513 25.2106L39.2266 25.2041L39.2459 13.2875Z" fill="#111111"/>
<path d="M57.7504 25.2334C51.6114 25.2234 50.5339 21.7913 50.5436 15.6166C50.5558 7.9975 53.3037 5.87125 59.8035 5.88188C65.184 5.89063 69.0094 7.34094 68.9997 13.4797C68.9963 15.6463 68.1994 17.0894 66.0328 17.0859L54.9106 17.0681C54.9059 19.9566 55.3722 21.9794 59.0195 21.9853L68.3722 22.0003L68.3669 25.2503L57.7504 25.2334ZM63.6911 13.8322C64.5218 13.8334 64.6308 13.2559 64.6318 12.7144C64.6358 10.1869 62.3264 9.13594 59.7985 9.13188C56.1875 9.12594 54.9212 10.5322 54.9159 13.8184L63.6911 13.8322Z" fill="#111111"/>
<path d="M88.9178 22.0337C88.9143 24.2003 87.829 25.2822 85.6625 25.2784L78.9821 25.2675C72.8074 25.2575 71.1524 21.4275 71.1618 15.6497C71.1711 9.90844 72.8383 6.11969 79.013 6.12969L84.7184 6.13875L84.7284 0L88.9534 0.00687408L88.9178 22.0337ZM80.0549 9.38094C75.9746 9.37438 75.5371 12.0456 75.5312 15.6566C75.5255 19.2678 75.9543 22.0125 80.0346 22.0191L83.6096 22.0247C84.3318 22.0259 84.6934 21.6653 84.6946 20.9431L84.7134 9.38812L80.0549 9.38094Z" fill="#111111"/>
<path d="M95.4834 25.2944C93.3168 25.2909 92.2352 24.2056 92.239 22.0391L92.2743 0.0124969L96.499 0.019371L96.489 6.15812L102.194 6.16718C108.333 6.17718 110.024 9.97125 110.015 15.7125C110.006 21.4903 108.302 25.315 102.164 25.305L95.4834 25.2944ZM96.4656 20.9625C96.4647 21.6847 96.825 22.0462 97.5472 22.0475L101.122 22.0531C105.203 22.0597 105.64 19.3162 105.646 15.705C105.652 12.0941 105.223 9.42125 101.143 9.41468L96.4844 9.40718L96.4656 20.9625Z" fill="#111111"/>
<path d="M119.387 25.3325C113.248 25.3225 112.171 21.8903 112.181 15.7159C112.193 8.09656 114.941 5.97062 121.44 5.98125C126.821 5.99 130.646 7.44062 130.636 13.5791C130.633 15.7456 129.836 17.1891 127.669 17.1856L116.547 17.1675C116.542 20.0559 117.009 22.0791 120.656 22.085L130.008 22.1L130.003 25.35L119.387 25.3325ZM125.327 13.9316C126.158 13.9328 126.267 13.3553 126.268 12.8137C126.272 10.2859 123.963 9.23531 121.435 9.23094C117.824 9.22531 116.558 10.6316 116.553 13.9172L125.327 13.9316Z" fill="#111111"/>
<path d="M140.005 25.3659C133.867 25.3559 132.789 21.9237 132.799 15.7491C132.811 8.13 135.558 6.00375 142.058 6.01438C147.439 6.02313 151.264 7.47344 151.254 13.6122C151.251 15.7788 150.454 17.2219 148.287 17.2184L137.165 17.2006C137.161 20.0891 137.627 22.1122 141.274 22.1178L150.626 22.1328L150.621 25.3828L140.005 25.3659ZM145.946 13.9647C146.776 13.9659 146.885 13.3884 146.886 12.8469C146.89 10.3194 144.581 9.26844 142.053 9.26438C138.442 9.25844 137.177 10.665 137.171 13.9509L145.946 13.9647Z" fill="#111111"/>
<path d="M170.005 25.4141C163.758 25.4041 162.114 20.9703 162.122 15.7687C162.13 10.5672 163.707 6.13875 170.312 6.14937L177.495 6.16093L177.493 7.48187L170.31 7.47031C165.356 7.4625 163.727 10.5697 163.719 15.7712C163.71 20.9728 165.219 24.0853 170.035 24.0931L177.769 24.1056L177.767 25.4266L170.005 25.4141Z" fill="#111111"/>
<path d="M197.269 15.8253C197.258 22.7609 194.941 25.6747 187.951 25.6634C180.988 25.6522 178.598 22.7309 178.609 15.7956C178.62 8.86031 181.019 5.94656 187.982 5.95781C194.973 5.96906 197.28 8.89 197.269 15.8253ZM187.925 24.3422C194.173 24.3522 195.663 21.9603 195.673 15.8228C195.682 9.68562 194.2 7.28875 187.952 7.27875C181.705 7.26875 180.215 9.66062 180.205 15.7978C180.195 21.9353 181.678 24.3322 187.925 24.3422Z" fill="#111111"/>
<path d="M216.853 23.5631C216.852 24.8566 216.272 25.7088 215.089 25.7069C214.208 25.7056 213.796 25.2922 213.165 24.3L203.118 8.01875C203.008 7.82594 202.788 7.55031 202.486 7.54969C202.403 7.54969 202.073 7.63156 202.072 8.09938L202.044 25.4656L200.558 25.4631L200.586 7.93188C200.589 6.03281 202.075 5.98 202.405 5.98063C203.479 5.9825 203.89 6.61625 204.302 7.27719L214.404 23.6409C214.542 23.8891 214.706 24.1369 215.009 24.1375C215.367 24.1381 215.367 23.8353 215.367 23.6425L215.396 6.22156L216.882 6.22406L216.853 23.5631Z" fill="#111111"/>
<path d="M220.705 25.4956L220.732 8.79031C220.735 6.83625 221.617 6.23219 223.351 6.235L234.057 6.25219L234.055 7.57313L223.404 7.55594C222.33 7.55438 222.22 7.93938 222.218 8.7925L222.208 15.26L230.85 15.2741L230.848 16.5953L222.206 16.5813L222.192 25.4981L220.705 25.4956Z" fill="#111111"/>
</svg>
